<?xml version="1.0" standalone="no"?>
<svg viewBox="0 0 200 200" xmlns="http://www.w3.org/2000/svg">
  <path fill="#154473" d="M28.7,-46.2C39,-43.7,50.5,-39.7,60.1,-31.8C69.8,-23.8,77.6,-11.9,77.3,-0.2C77.1,11.6,68.6,23.2,58.8,30.9C49.1,38.6,37.9,42.5,27.9,52.4C17.8,62.4,8.9,78.4,-2.2,82.3C-13.4,86.2,-26.8,77.8,-37.7,68.4C-48.6,58.9,-57,48.4,-66.5,36.8C-76,25.2,-86.4,12.6,-84.2,1.3C-82,-10,-67,-20,-56.2,-29.4C-45.5,-38.8,-39,-47.5,-30.3,-50.9C-21.6,-54.4,-10.8,-52.5,-0.8,-51.1C9.2,-49.6,18.3,-48.6,28.7,-46.2Z" transform="translate(100 100)" />
</svg>
