<?xml version="1.0" standalone="no"?><svg xmlns="http://www.w3.org/2000/svg" viewBox="0 0 1440 320"><path fill="#0099ff" fill-opacity="1" d="M0,256L18.5,245.3C36.9,235,74,213,111,197.3C147.7,181,185,171,222,170.7C258.5,171,295,181,332,202.7C369.2,224,406,256,443,245.3C480,235,517,181,554,160C590.8,139,628,149,665,160C701.5,171,738,181,775,208C812.3,235,849,277,886,250.7C923.1,224,960,128,997,106.7C1033.8,85,1071,139,1108,165.3C1144.6,192,1182,192,1218,197.3C1255.4,203,1292,213,1329,234.7C1366.2,256,1403,288,1422,304L1440,320L1440,320L1421.5,320C1403.1,320,1366,320,1329,320C1292.3,320,1255,320,1218,320C1181.5,320,1145,320,1108,320C1070.8,320,1034,320,997,320C960,320,923,320,886,320C849.2,320,812,320,775,320C738.5,320,702,320,665,320C627.7,320,591,320,554,320C516.9,320,480,320,443,320C406.2,320,369,320,332,320C295.4,320,258,320,222,320C184.6,320,148,320,111,320C73.8,320,37,320,18,320L0,320Z"></path></svg>